# xmcd CD database file
#
# Track frame offsets:
#	150
#	3293
#	23313
#	42105
#	58163
#	72655
#	87934
#	101785
#	115212
#	126858
#	149524
#	164592
#	179388
#	195074
#	226412
#	229907
#
# Disc length: 3448 seconds
#
# Revision: 0
# Processed by: cddbd v1.5.2PL0 Copyright (c) Steve Scherf et al.
# Submitted via: CDex 2.07
#
DISCID=d50d7610
DTITLE=Paul McCartney - Egypt Station
DYEAR=2018
DGENRE=Pop rock
TTITLE0=Opening Station
TTITLE1=I Don't Know
TTITLE2=Come On To Me
TTITLE3=Happy With You
TTITLE4=Who Cares
TTITLE5=Fuh You
TTITLE6=Confidante
TTITLE7=People Want Peace
TTITLE8=Hand In Hand
TTITLE9=Dominoes
TTITLE10=Back In Brazil
TTITLE11=Do It Now
TTITLE12=Caesar Rock
TTITLE13=Despite Repeated Warnings
TTITLE14=Station II
TTITLE15=Hunt You Down/Naked/C-Link
EXTD=YEAR: 2018
EXTT0=
EXTT1=
EXTT2=
EXTT3=
EXTT4=
EXTT5=
EXTT6=
EXTT7=
EXTT8=
EXTT9=
EXTT10=
EXTT11=
EXTT12=
EXTT13=
EXTT14=
EXTT15=
PLAYORDER=
